<svg id="Layer_1" data-name="Layer 1" xmlns="http://www.w3.org/2000/svg" xmlns:xlink="http://www.w3.org/1999/xlink" viewBox="0 0 1082.71 737.69"><defs><style>.cls-1{fill:#231f20;}.cls-1,.cls-16{opacity:0.75;}.cls-2{fill:#ffde23;}.cls-10,.cls-11,.cls-12,.cls-16,.cls-17,.cls-3,.cls-4,.cls-5,.cls-6,.cls-7,.cls-8,.cls-9{fill:#fff;}.cls-4{opacity:0.9;}.cls-5{opacity:0.8;}.cls-6{opacity:0.7;}.cls-7{opacity:0.6;}.cls-8{opacity:0.5;}.cls-9{opacity:0.4;}.cls-10{opacity:0.3;}.cls-11{opacity:0.1;}.cls-12{opacity:0.2;}.cls-13{fill:url(#linear-gradient);}.cls-14{fill:url(#linear-gradient-2);}.cls-15{fill:url(#linear-gradient-3);}.cls-17{opacity:0.25;}.cls-18{fill:url(#linear-gradient-4);}.cls-19{fill:url(#linear-gradient-5);}.cls-20{fill:url(#linear-gradient-6);}</style><linearGradient id="linear-gradient" x1="503.32" y1="-200.44" x2="555.79" y2="-200.44" gradientTransform="matrix(-1, 0, 0, 1, 1503.68, 285.41)" gradientUnits="userSpaceOnUse"><stop offset="0" stop-color="#fff"/><stop offset="1" stop-color="#fff" stop-opacity="0"/></linearGradient><linearGradient id="linear-gradient-2" x1="173.11" y1="224.34" x2="225.58" y2="224.34" gradientTransform="translate(1251.33 33.06) rotate(90)" xlink:href="#linear-gradient"/><linearGradient id="linear-gradient-3" x1="-257.19" y1="1216.67" x2="37.39" y2="1216.67" gradientTransform="translate(1270.15 373.82) rotate(90)" xlink:href="#linear-gradient"/><linearGradient id="linear-gradient-4" x1="-128.46" y1="681.83" x2="166.12" y2="681.83" gradientTransform="matrix(-1, 0, 0, 1, 911.6, 15.28)" xlink:href="#linear-gradient"/><linearGradient id="linear-gradient-5" x1="1025.65" y1="-6.21" x2="1070.18" y2="-6.21" gradientTransform="translate(85.27 1703.82) rotate(-90)" xlink:href="#linear-gradient"/><linearGradient id="linear-gradient-6" x1="348.98" y1="750.71" x2="393.51" y2="750.71" gradientTransform="matrix(1, 0, 0, -1, -167.08, 1451.47)" xlink:href="#linear-gradient"/></defs><title>inner template without white 75</title><polygon class="cls-1" points="12.63 28.41 12.63 716.41 25.31 729.09 922.96 729.09 1072.96 729.09 1072.96 574.41 1021.96 523.41 1021.96 420.41 1073.96 368.41 1073.96 62.41 1023.46 11.91 29.96 11.91 12.63 28.41"/><polygon class="cls-2" points="41.3 0.54 1029.35 0.54 1082.61 53.8 1082.61 308.15 1070.65 308.15 1055.98 293.48 1055.98 64.67 1015.49 24.18 41.3 24.18 41.3 71.2 22.28 90.22 0 90.22 0 23.37 23.37 0 41.3 0.54"/><polygon class="cls-2" points="1082.61 328.5 1082.61 388.5 1061.81 409.3 1061.81 544.49 1082.71 565.39 1082.71 640.49 1062.51 660.69 1062.51 593.99 1007.52 538.99 1007.52 414 1057.26 364.25 1057.26 328.5 1082.61 328.5"/><polygon class="cls-2" points="1082.71 670.2 1063.36 689.54 1063.36 719.69 463.54 719.69 445.55 737.69 1082.71 737.69 1082.71 670.2"/><polyline class="cls-2" points="421.84 737.69 455.3 704.23 519.04 704.23 496.92 682.11 334.55 682.11 298.37 718.3 126.56 718.3 107.17 737.69 421.84 737.69"/><polygon class="cls-2" points="0 605.41 0 717.6 19.83 737.43 93.51 737.43 112.34 718.59 25.27 718.59 25.27 605.41 0 605.41"/><rect class="cls-3" x="312.04" y="197" width="25.27" height="25.27" transform="translate(337.31 329.68) rotate(-180)"/><rect class="cls-2" x="312.04" y="235" width="25.27" height="67" transform="translate(337.31 447.41) rotate(-180)"/><rect class="cls-2" x="312.04" y="314.73" width="25.27" height="67" transform="translate(337.31 606.88) rotate(-180)"/><rect class="cls-3" x="312.04" y="394.46" width="25.27" height="25.27" transform="translate(337.31 724.61) rotate(-180)"/><rect class="cls-2" x="312.04" y="432.46" width="25.27" height="77.04" transform="translate(337.31 852.38) rotate(-180)"/><polygon class="cls-2" points="0 434.41 23.96 434.41 49.96 460.41 49.96 542.41 22.97 569.4 22.97 588.41 0 588.41 0 434.41"/><rect class="cls-3" x="1326" y="148.53" width="24.78" height="8.78" transform="translate(1179.27 -1275.06) rotate(90)"/><rect class="cls-4" x="1311.57" y="148.53" width="24.78" height="8.78" transform="translate(1164.84 -1260.63) rotate(90)"/><rect class="cls-5" x="1297.14" y="148.53" width="24.78" height="8.78" transform="translate(1150.41 -1246.2) rotate(90)"/><rect class="cls-6" x="1282.71" y="148.53" width="24.78" height="8.78" transform="translate(1135.98 -1231.77) rotate(90)"/><rect class="cls-7" x="1268.28" y="148.53" width="24.78" height="8.78" transform="translate(1121.55 -1217.34) rotate(90)"/><rect class="cls-8" x="1253.85" y="148.53" width="24.78" height="8.78" transform="translate(1107.12 -1202.91) rotate(90)"/><rect class="cls-9" x="1239.42" y="148.53" width="24.78" height="8.78" transform="translate(1092.69 -1188.48) rotate(90)"/><rect class="cls-10" x="1224.99" y="148.53" width="24.78" height="8.78" transform="translate(1078.26 -1174.05) rotate(90)"/><rect class="cls-11" x="1196.13" y="148.53" width="24.78" height="8.78" transform="translate(1049.4 -1145.19) rotate(90)"/><rect class="cls-12" x="1210.56" y="148.53" width="24.78" height="8.78" transform="translate(1063.83 -1159.62) rotate(90)"/><polygon class="cls-3" points="1030.74 81.37 999.22 81.37 1006.45 88.6 1022.35 88.6 1022.35 148.19 1030.74 156.57 1030.74 81.37"/><polygon class="cls-3" points="1030.59 164.97 1017.29 151.67 1017.29 93.45 1011.77 99.09 1011.77 187.08 1030.59 205.9 1030.59 164.97"/><polygon class="cls-13" points="955.1 88.58 1000.36 88.58 993.15 81.37 947.89 81.37 955.1 88.58"/><polygon class="cls-14" points="1023.37 251.43 1023.37 206.17 1030.59 213.39 1030.59 258.64 1023.37 251.43"/><rect class="cls-3" x="50.19" y="696.49" width="21.03" height="7.45"/><rect class="cls-4" x="50.19" y="684.25" width="21.03" height="7.45"/><rect class="cls-5" x="50.19" y="672" width="21.03" height="7.45"/><rect class="cls-6" x="50.19" y="659.76" width="21.03" height="7.45"/><rect class="cls-7" x="50.19" y="647.52" width="21.03" height="7.45"/><rect class="cls-8" x="50.19" y="635.27" width="21.03" height="7.45"/><rect class="cls-9" x="50.19" y="623.03" width="21.03" height="7.45"/><rect class="cls-10" x="50.19" y="610.79" width="21.03" height="7.45"/><rect class="cls-11" x="50.19" y="586.3" width="21.03" height="7.45"/><rect class="cls-12" x="50.19" y="598.54" width="21.03" height="7.45"/><rect class="cls-3" x="1337.86" y="751.7" width="21.03" height="7.45" transform="translate(280.91 2014.21) rotate(-90)"/><rect class="cls-4" x="1325.62" y="751.7" width="21.03" height="7.45" transform="translate(268.67 2001.97) rotate(-90)"/><rect class="cls-5" x="1313.38" y="751.7" width="21.03" height="7.45" transform="translate(256.42 1989.72) rotate(-90)"/><rect class="cls-6" x="1301.13" y="751.7" width="21.03" height="7.45" transform="translate(244.18 1977.48) rotate(-90)"/><rect class="cls-7" x="1288.89" y="751.7" width="21.03" height="7.45" transform="translate(231.94 1965.24) rotate(-90)"/><rect class="cls-8" x="1276.64" y="751.7" width="21.03" height="7.45" transform="translate(219.69 1952.99) rotate(-90)"/><rect class="cls-9" x="1264.4" y="751.7" width="21.03" height="7.45" transform="translate(207.45 1940.75) rotate(-90)"/><rect class="cls-10" x="1252.16" y="751.7" width="21.03" height="7.45" transform="translate(195.21 1928.51) rotate(-90)"/><rect class="cls-11" x="1227.67" y="751.7" width="21.03" height="7.45" transform="translate(170.72 1904.02) rotate(-90)"/><rect class="cls-12" x="1239.91" y="751.7" width="21.03" height="7.45" transform="translate(182.96 1916.26) rotate(-90)"/><polygon class="cls-15" points="50.19 123.22 56.77 116.63 56.77 411.21 50.19 411.21 50.19 123.22"/><rect class="cls-3" x="362.51" y="217.92" width="28.72" height="5.32" transform="translate(285.41 -245.87) rotate(90)"/><rect class="cls-16" x="362.51" y="257.59" width="28.72" height="5.32" transform="translate(325.08 -206.2) rotate(90)"/><rect class="cls-8" x="362.51" y="297.27" width="28.72" height="5.32" transform="translate(364.76 -166.53) rotate(90)"/><rect class="cls-17" x="362.51" y="336.94" width="28.72" height="5.32" transform="translate(404.43 -126.85) rotate(90)"/><polygon class="cls-18" points="1033.47 700.41 1040.06 693.82 745.48 693.82 745.48 700.41 1033.47 700.41"/><rect class="cls-3" x="1323.38" y="772.7" width="28.72" height="5.32" transform="translate(2363.44 1461.13) rotate(-180)"/><rect class="cls-16" x="1283.71" y="772.7" width="28.72" height="5.32" transform="translate(2284.09 1461.13) rotate(-180)"/><rect class="cls-8" x="1244.03" y="772.7" width="28.72" height="5.32" transform="translate(2204.74 1461.13) rotate(-180)"/><rect class="cls-17" x="1204.36" y="772.7" width="28.72" height="5.32" transform="translate(2125.4 1461.13) rotate(-180)"/><polygon class="cls-3" points="76 703.94 76 677.2 82.14 683.33 82.14 696.83 132.7 696.83 139.81 703.94 76 703.94"/><polygon class="cls-3" points="146.94 703.82 135.66 692.53 86.25 692.53 91.04 687.85 165.7 687.85 181.67 703.82 146.94 703.82"/><polygon class="cls-19" points="82.13 639.77 82.13 678.17 76 672.04 76 633.64 82.13 639.77"/><polygon class="cls-20" points="220.3 697.69 181.9 697.69 188.03 703.82 226.43 703.82 220.3 697.69"/></svg>